<?xml version="1.0" standalone="no"?>
<!DOCTYPE svg PUBLIC "-//W3C//DTD SVG 20010904//EN"
 "http://www.w3.org/TR/2001/REC-SVG-20010904/DTD/svg10.dtd">
<svg version="1.0" xmlns="http://www.w3.org/2000/svg"
 width="400.000000pt" height="400.000000pt" viewBox="0 0 400.000000 400.000000"
 preserveAspectRatio="xMidYMid meet">
<metadata>
Created by potrace 1.14, written by Peter Selinger 2001-2017
</metadata>
<g transform="translate(0.000000,400.000000) scale(0.100000,-0.100000)"
fill="#000000" stroke="none">
<path d="M1635 3878 c-84 -49 -134 -200 -110 -333 8 -45 40 -121 55 -130 15
-9 12 -35 -5 -35 -40 0 -291 -100 -329 -131 -6 -5 -35 -25 -65 -45 -139 -93
-294 -256 -332 -350 -15 -36 -13 -30 -39 -143 -30 -133 -40 -153 -127 -239
-43 -42 -90 -95 -104 -117 -34 -55 -80 -165 -73 -176 3 -5 1 -9 -4 -9 -10 0
-11 -8 -13 -110 0 -53 6 -95 21 -140 20 -61 84 -167 120 -200 48 -43 54 -115
20 -245 -25 -101 -34 -287 -19 -390 5 -33 11 -71 13 -85 5 -35 25 -111 35
-135 21 -51 77 -161 85 -167 6 -4 2 -24 -10 -49 -25 -56 -26 -190 -2 -234 69
-128 255 -166 350 -72 l33 33 77 -38 c79 -38 175 -76 218 -84 13 -3 31 -11 39
-17 8 -7 16 -11 18 -9 2 2 16 1 31 -2 15 -3 41 -8 57 -11 17 -3 41 -7 54 -10
163 -32 458 -37 611 -10 14 2 44 6 68 9 23 3 46 7 51 10 4 3 21 -8 37 -25 59
-62 172 -93 229 -63 14 7 25 11 25 8 0 -11 66 41 104 80 39 42 106 139 106
155 0 5 7 11 15 14 46 18 172 113 246 187 125 123 231 294 292 470 22 64 63
204 65 220 0 3 3 21 7 40 34 182 39 496 10 675 -14 87 -56 265 -80 336 -14 40
-27 79 -28 84 -3 9 -16 40 -50 115 -18 38 -76 139 -113 197 -95 145 -321 381
-447 466 -23 15 -50 35 -59 44 -10 9 -18 12 -18 8 0 -4 -8 -1 -17 7 -27 24
-163 84 -261 115 l-88 28 -34 87 c-19 49 -38 88 -44 88 -5 0 -7 3 -3 6 8 8
-58 105 -112 166 -112 124 -237 112 -257 -24 -4 -29 -6 -64 -5 -78 5 -42 -7
-18 -39 80 -17 52 -42 109 -56 127 -43 56 -104 77 -149 51z"/>
</g>
</svg>
